<svg width="4" height="18" viewBox="0 0 4 18" fill="none" xmlns="http://www.w3.org/2000/svg">
<path d="M1.99967 16.3337C2.50594 16.3337 2.91634 15.9233 2.91634 15.417C2.91634 14.9107 2.50594 14.5003 1.99967 14.5003C1.49341 14.5003 1.08301 14.9107 1.08301 15.417C1.08301 15.9233 1.49341 16.3337 1.99967 16.3337Z" stroke="#6F6B7D" stroke-width="2" stroke-linecap="round" stroke-linejoin="round"/>
<path d="M1.99967 9.91699C2.50594 9.91699 2.91634 9.50659 2.91634 9.00033C2.91634 8.49406 2.50594 8.08366 1.99967 8.08366C1.49341 8.08366 1.08301 8.49406 1.08301 9.00033C1.08301 9.50659 1.49341 9.91699 1.99967 9.91699Z" stroke="#6F6B7D" stroke-width="2" stroke-linecap="round" stroke-linejoin="round"/>
<path d="M1.99967 3.50033C2.50594 3.50033 2.91634 3.08992 2.91634 2.58366C2.91634 2.0774 2.50594 1.66699 1.99967 1.66699C1.49341 1.66699 1.08301 2.0774 1.08301 2.58366C1.08301 3.08992 1.49341 3.50033 1.99967 3.50033Z" stroke="#6F6B7D" stroke-width="2" stroke-linecap="round" stroke-linejoin="round"/>
</svg>
