<svg width="27" height="26" viewBox="0 0 27 26" fill="none" xmlns="http://www.w3.org/2000/svg">
<path d="M11.333 5.41667C11.333 4.22005 12.3031 3.25 13.4997 3.25C14.6963 3.25 15.6663 4.22005 15.6663 5.41667C18.2015 6.61543 19.8682 9.11543 19.9997 11.9167V15.1667C20.165 16.5325 20.9691 17.7387 22.1663 18.4167H4.83301C6.03021 17.7387 6.83434 16.5325 6.99967 15.1667V11.9167C7.13116 9.11543 8.79782 6.61543 11.333 5.41667" stroke="white" stroke-linecap="round" stroke-linejoin="round"/>
<path d="M10.25 18.417V19.5003C10.25 21.2953 11.7051 22.7503 13.5 22.7503C15.2949 22.7503 16.75 21.2953 16.75 19.5003V18.417" stroke="white" stroke-linecap="round" stroke-linejoin="round"/>
<circle cx="18.5" cy="6" r="3" fill="#EA5455"/>
</svg>
