<svg width="21" height="21" viewBox="0 0 21 21" fill="none" xmlns="http://www.w3.org/2000/svg">
<path d="M7.88855 13.0171L12.8143 8.09143" stroke="#B5B5B5" stroke-width="0.820952" stroke-linecap="round" stroke-linejoin="round"/>
<circle cx="8.29903" cy="8.50191" r="0.410476" fill="#B5B5B5" stroke="#B5B5B5" stroke-width="0.820952" stroke-linecap="round" stroke-linejoin="round"/>
<circle cx="12.4038" cy="12.6067" r="0.410476" fill="#B5B5B5" stroke="#B5B5B5" stroke-width="0.820952" stroke-linecap="round" stroke-linejoin="round"/>
<path d="M4.60471 6.61369C4.60471 5.61621 5.41333 4.8076 6.4108 4.8076H7.23176C7.70865 4.80732 8.16607 4.61845 8.50423 4.28219L9.0789 3.70752C9.4179 3.36661 9.87882 3.17493 10.3596 3.17493C10.8404 3.17493 11.3013 3.36661 11.6403 3.70752L12.2149 4.28219C12.5531 4.61845 13.0105 4.80732 13.4874 4.8076H14.3084C15.3058 4.8076 16.1145 5.61621 16.1145 6.61369V7.43465C16.1147 7.91154 16.3036 8.36896 16.6399 8.70712L17.2145 9.28179C17.5554 9.62078 17.7471 10.0817 17.7471 10.5625C17.7471 11.0432 17.5554 11.5042 17.2145 11.8432L16.6399 12.4178C16.3036 12.756 16.1147 13.2134 16.1145 13.6903V14.5113C16.1145 15.5087 15.3058 16.3174 14.3084 16.3174H13.4874C13.0105 16.3176 12.5531 16.5065 12.2149 16.8428L11.6403 17.4174C11.3013 17.7583 10.8404 17.95 10.3596 17.95C9.87882 17.95 9.4179 17.7583 9.0789 17.4174L8.50423 16.8428C8.16607 16.5065 7.70865 16.3176 7.23176 16.3174H6.4108C5.41333 16.3174 4.60471 15.5087 4.60471 14.5113V13.6903C4.60444 13.2134 4.41556 12.756 4.0793 12.4178L3.50463 11.8432C3.16373 11.5042 2.97205 11.0432 2.97205 10.5625C2.97205 10.0817 3.16373 9.62078 3.50463 9.28179L4.0793 8.70712C4.41556 8.36896 4.60444 7.91154 4.60471 7.43465V6.61369" stroke="#B5B5B5" stroke-width="0.820952" stroke-linecap="round" stroke-linejoin="round"/>
</svg>
