<svg width="21" height="21" viewBox="0 0 21 21" fill="none" xmlns="http://www.w3.org/2000/svg">
<path fill-rule="evenodd" clip-rule="evenodd" d="M6.9519 5.68286H4.62532C3.70719 5.68286 2.96289 6.42716 2.96289 7.34529V9.67187C2.96289 10.1127 3.13775 10.5355 3.44972 10.8475L8.47066 15.8684C8.78243 16.1802 9.20532 16.3554 9.64626 16.3554C10.0872 16.3554 10.5101 16.1802 10.8219 15.8684L13.1484 13.5418C13.4603 13.2301 13.6355 12.8072 13.6355 12.3662C13.6355 11.9253 13.4603 11.5024 13.1484 11.1906L8.12668 6.16969C7.81508 5.85813 7.39254 5.68303 6.9519 5.68286Z" stroke="#B5B5B5" stroke-width="0.820952" stroke-linecap="round" stroke-linejoin="round"/>
<path d="M14.9267 15.8684L17.2532 13.5418C17.5651 13.2301 17.7402 12.8072 17.7402 12.3662C17.7402 11.9253 17.5651 11.5024 17.2532 11.1906L11.4105 5.34874" stroke="#B5B5B5" stroke-width="0.820952" stroke-linecap="round" stroke-linejoin="round"/>
<path d="M5.42569 8.14571H5.41748" stroke="#B5B5B5" stroke-width="0.820952" stroke-linecap="round" stroke-linejoin="round"/>
</svg>
